<mxfile host="app.diagrams.net" modified="2022-05-04T03:24:58.722Z" agent="5.0 (Windows NT 10.0; Win64; x64) AppleWebKit/537.36 (KHTML, like Gecko) Chrome/100.0.4896.127 Safari/537.36" etag="rrvcadqVFJHKOqXMcWjq" version="17.4.6" type="github">
  <diagram id="hwEnMFRsd4231ranK771" name="Page-1">
    <mxGraphModel dx="779" dy="1581" grid="1" gridSize="10" guides="1" tooltips="1" connect="1" arrows="1" fold="1" page="1" pageScale="1" pageWidth="827" pageHeight="1169" math="0" shadow="0">
      <root>
        <mxCell id="0" />
        <mxCell id="1" parent="0" />
        <mxCell id="HtaL5qtSipClP9a9sMlD-1" value="ClienteEMail" style="swimlane;fontStyle=1;align=center;verticalAlign=top;childLayout=stackLayout;horizontal=1;startSize=26;horizontalStack=0;resizeParent=1;resizeParentMax=0;resizeLast=0;collapsible=1;marginBottom=0;strokeColor=default;" vertex="1" parent="1">
          <mxGeometry x="20" y="-1078" width="240" height="346" as="geometry" />
        </mxCell>
        <mxCell id="HtaL5qtSipClP9a9sMlD-2" value="servidor: ServidorPop" style="text;strokeColor=none;fillColor=none;align=left;verticalAlign=top;spacingLeft=4;spacingRight=4;overflow=hidden;rotatable=0;points=[[0,0.5],[1,0.5]];portConstraint=eastwest;" vertex="1" parent="HtaL5qtSipClP9a9sMlD-1">
          <mxGeometry y="26" width="240" height="26" as="geometry" />
        </mxCell>
        <mxCell id="HtaL5qtSipClP9a9sMlD-3" value="nombreUsuario: String" style="text;strokeColor=none;fillColor=none;align=left;verticalAlign=top;spacingLeft=4;spacingRight=4;overflow=hidden;rotatable=0;points=[[0,0.5],[1,0.5]];portConstraint=eastwest;" vertex="1" parent="HtaL5qtSipClP9a9sMlD-1">
          <mxGeometry y="52" width="240" height="26" as="geometry" />
        </mxCell>
        <mxCell id="HtaL5qtSipClP9a9sMlD-26" value="passusuario: String" style="text;strokeColor=none;fillColor=none;align=left;verticalAlign=top;spacingLeft=4;spacingRight=4;overflow=hidden;rotatable=0;points=[[0,0.5],[1,0.5]];portConstraint=eastwest;" vertex="1" parent="HtaL5qtSipClP9a9sMlD-1">
          <mxGeometry y="78" width="240" height="26" as="geometry" />
        </mxCell>
        <mxCell id="HtaL5qtSipClP9a9sMlD-27" value="- inbox: ArrayList&lt;Correo&gt;" style="text;strokeColor=none;fillColor=none;align=left;verticalAlign=top;spacingLeft=4;spacingRight=4;overflow=hidden;rotatable=0;points=[[0,0.5],[1,0.5]];portConstraint=eastwest;" vertex="1" parent="HtaL5qtSipClP9a9sMlD-1">
          <mxGeometry y="104" width="240" height="26" as="geometry" />
        </mxCell>
        <mxCell id="HtaL5qtSipClP9a9sMlD-4" value="" style="line;strokeWidth=1;fillColor=none;align=left;verticalAlign=middle;spacingTop=-1;spacingLeft=3;spacingRight=3;rotatable=0;labelPosition=right;points=[];portConstraint=eastwest;" vertex="1" parent="HtaL5qtSipClP9a9sMlD-1">
          <mxGeometry y="130" width="240" height="8" as="geometry" />
        </mxCell>
        <mxCell id="HtaL5qtSipClP9a9sMlD-5" value="+ new(ServidorPop, String, String)" style="text;strokeColor=none;fillColor=none;align=left;verticalAlign=top;spacingLeft=4;spacingRight=4;overflow=hidden;rotatable=0;points=[[0,0.5],[1,0.5]];portConstraint=eastwest;fontStyle=4" vertex="1" parent="HtaL5qtSipClP9a9sMlD-1">
          <mxGeometry y="138" width="240" height="26" as="geometry" />
        </mxCell>
        <mxCell id="HtaL5qtSipClP9a9sMlD-28" value="+ conectar(): void" style="text;strokeColor=none;fillColor=none;align=left;verticalAlign=top;spacingLeft=4;spacingRight=4;overflow=hidden;rotatable=0;points=[[0,0.5],[1,0.5]];portConstraint=eastwest;" vertex="1" parent="HtaL5qtSipClP9a9sMlD-1">
          <mxGeometry y="164" width="240" height="26" as="geometry" />
        </mxCell>
        <mxCell id="HtaL5qtSipClP9a9sMlD-29" value="+ borrarCorreo(Correo): void" style="text;strokeColor=none;fillColor=none;align=left;verticalAlign=top;spacingLeft=4;spacingRight=4;overflow=hidden;rotatable=0;points=[[0,0.5],[1,0.5]];portConstraint=eastwest;" vertex="1" parent="HtaL5qtSipClP9a9sMlD-1">
          <mxGeometry y="190" width="240" height="26" as="geometry" />
        </mxCell>
        <mxCell id="HtaL5qtSipClP9a9sMlD-30" value="+ contarBorrados(): int" style="text;strokeColor=none;fillColor=none;align=left;verticalAlign=top;spacingLeft=4;spacingRight=4;overflow=hidden;rotatable=0;points=[[0,0.5],[1,0.5]];portConstraint=eastwest;" vertex="1" parent="HtaL5qtSipClP9a9sMlD-1">
          <mxGeometry y="216" width="240" height="26" as="geometry" />
        </mxCell>
        <mxCell id="HtaL5qtSipClP9a9sMlD-31" value="+ contarInbox(): int" style="text;strokeColor=none;fillColor=none;align=left;verticalAlign=top;spacingLeft=4;spacingRight=4;overflow=hidden;rotatable=0;points=[[0,0.5],[1,0.5]];portConstraint=eastwest;" vertex="1" parent="HtaL5qtSipClP9a9sMlD-1">
          <mxGeometry y="242" width="240" height="26" as="geometry" />
        </mxCell>
        <mxCell id="HtaL5qtSipClP9a9sMlD-32" value="+ eliminarBorrado(Correo): void" style="text;strokeColor=none;fillColor=none;align=left;verticalAlign=top;spacingLeft=4;spacingRight=4;overflow=hidden;rotatable=0;points=[[0,0.5],[1,0.5]];portConstraint=eastwest;" vertex="1" parent="HtaL5qtSipClP9a9sMlD-1">
          <mxGeometry y="268" width="240" height="26" as="geometry" />
        </mxCell>
        <mxCell id="HtaL5qtSipClP9a9sMlD-33" value="+ recibirNuevos(): void" style="text;strokeColor=none;fillColor=none;align=left;verticalAlign=top;spacingLeft=4;spacingRight=4;overflow=hidden;rotatable=0;points=[[0,0.5],[1,0.5]];portConstraint=eastwest;" vertex="1" parent="HtaL5qtSipClP9a9sMlD-1">
          <mxGeometry y="294" width="240" height="26" as="geometry" />
        </mxCell>
        <mxCell id="HtaL5qtSipClP9a9sMlD-34" value="+ enviarCorreo(String, String, String): void" style="text;strokeColor=none;fillColor=none;align=left;verticalAlign=top;spacingLeft=4;spacingRight=4;overflow=hidden;rotatable=0;points=[[0,0.5],[1,0.5]];portConstraint=eastwest;" vertex="1" parent="HtaL5qtSipClP9a9sMlD-1">
          <mxGeometry y="320" width="240" height="26" as="geometry" />
        </mxCell>
        <mxCell id="HtaL5qtSipClP9a9sMlD-21" style="edgeStyle=none;orthogonalLoop=1;jettySize=auto;html=1;exitX=0;exitY=0.132;exitDx=0;exitDy=0;endArrow=none;endFill=0;rounded=0;exitPerimeter=0;startArrow=block;startFill=1;" edge="1" parent="1">
          <mxGeometry relative="1" as="geometry">
            <mxPoint x="290" y="-950" as="targetPoint" />
            <mxPoint x="425" y="-996.568" as="sourcePoint" />
          </mxGeometry>
        </mxCell>
        <mxCell id="HtaL5qtSipClP9a9sMlD-22" value="&amp;nbsp;*" style="text;html=1;strokeColor=none;fillColor=none;align=center;verticalAlign=middle;whiteSpace=wrap;rounded=0;" vertex="1" parent="1">
          <mxGeometry x="385" y="-1019" width="40" height="20" as="geometry" />
        </mxCell>
        <mxCell id="HtaL5qtSipClP9a9sMlD-23" value="1" style="text;html=1;strokeColor=none;fillColor=none;align=center;verticalAlign=middle;whiteSpace=wrap;rounded=0;" vertex="1" parent="1">
          <mxGeometry x="270" y="-999" width="40" height="20" as="geometry" />
        </mxCell>
        <mxCell id="HtaL5qtSipClP9a9sMlD-24" value="productos" style="text;html=1;strokeColor=none;fillColor=none;align=center;verticalAlign=middle;whiteSpace=wrap;rounded=0;" vertex="1" parent="1">
          <mxGeometry x="310" y="-1019" width="40" height="20" as="geometry" />
        </mxCell>
        <mxCell id="HtaL5qtSipClP9a9sMlD-25" value="&lt;font style=&quot;font-size: 22px&quot;&gt;Cliente de e-mail&lt;/font&gt;" style="text;html=1;strokeColor=none;fillColor=none;align=center;verticalAlign=middle;whiteSpace=wrap;rounded=0;" vertex="1" parent="1">
          <mxGeometry x="20" y="-1140" width="170" height="20" as="geometry" />
        </mxCell>
        <mxCell id="HtaL5qtSipClP9a9sMlD-35" value="Correo" style="swimlane;fontStyle=1;align=center;verticalAlign=top;childLayout=stackLayout;horizontal=1;startSize=26;horizontalStack=0;resizeParent=1;resizeParentMax=0;resizeLast=0;collapsible=1;marginBottom=0;strokeColor=default;" vertex="1" parent="1">
          <mxGeometry x="285" y="-935" width="240" height="60" as="geometry" />
        </mxCell>
        <mxCell id="HtaL5qtSipClP9a9sMlD-40" value="" style="line;strokeWidth=1;fillColor=none;align=left;verticalAlign=middle;spacingTop=-1;spacingLeft=3;spacingRight=3;rotatable=0;labelPosition=right;points=[];portConstraint=eastwest;" vertex="1" parent="HtaL5qtSipClP9a9sMlD-35">
          <mxGeometry y="26" width="240" height="8" as="geometry" />
        </mxCell>
        <mxCell id="HtaL5qtSipClP9a9sMlD-41" value="+ new(String, String, String)" style="text;strokeColor=none;fillColor=none;align=left;verticalAlign=top;spacingLeft=4;spacingRight=4;overflow=hidden;rotatable=0;points=[[0,0.5],[1,0.5]];portConstraint=eastwest;fontStyle=4" vertex="1" parent="HtaL5qtSipClP9a9sMlD-35">
          <mxGeometry y="34" width="240" height="26" as="geometry" />
        </mxCell>
        <mxCell id="HtaL5qtSipClP9a9sMlD-49" value="IServidor &lt;&lt;interface&gt;&gt;" style="swimlane;fontStyle=1;align=center;verticalAlign=top;childLayout=stackLayout;horizontal=1;startSize=26;horizontalStack=0;resizeParent=1;resizeParentMax=0;resizeLast=0;collapsible=1;marginBottom=0;strokeColor=default;" vertex="1" parent="1">
          <mxGeometry x="285" y="-820" width="255" height="190" as="geometry" />
        </mxCell>
        <mxCell id="HtaL5qtSipClP9a9sMlD-50" value="" style="line;strokeWidth=1;fillColor=none;align=left;verticalAlign=middle;spacingTop=-1;spacingLeft=3;spacingRight=3;rotatable=0;labelPosition=right;points=[];portConstraint=eastwest;" vertex="1" parent="HtaL5qtSipClP9a9sMlD-49">
          <mxGeometry y="26" width="255" height="8" as="geometry" />
        </mxCell>
        <mxCell id="HtaL5qtSipClP9a9sMlD-51" value="+ recibirNuevos(String, String): List&lt;Correo&gt;" style="text;strokeColor=none;fillColor=none;align=left;verticalAlign=top;spacingLeft=4;spacingRight=4;overflow=hidden;rotatable=0;points=[[0,0.5],[1,0.5]];portConstraint=eastwest;fontStyle=0" vertex="1" parent="HtaL5qtSipClP9a9sMlD-49">
          <mxGeometry y="34" width="255" height="26" as="geometry" />
        </mxCell>
        <mxCell id="HtaL5qtSipClP9a9sMlD-53" value="+ conectar(String, String): void" style="text;strokeColor=none;fillColor=none;align=left;verticalAlign=top;spacingLeft=4;spacingRight=4;overflow=hidden;rotatable=0;points=[[0,0.5],[1,0.5]];portConstraint=eastwest;fontStyle=0" vertex="1" parent="HtaL5qtSipClP9a9sMlD-49">
          <mxGeometry y="60" width="255" height="26" as="geometry" />
        </mxCell>
        <mxCell id="HtaL5qtSipClP9a9sMlD-54" value="+ enviar(Correo): void" style="text;strokeColor=none;fillColor=none;align=left;verticalAlign=top;spacingLeft=4;spacingRight=4;overflow=hidden;rotatable=0;points=[[0,0.5],[1,0.5]];portConstraint=eastwest;fontStyle=0" vertex="1" parent="HtaL5qtSipClP9a9sMlD-49">
          <mxGeometry y="86" width="255" height="26" as="geometry" />
        </mxCell>
        <mxCell id="HtaL5qtSipClP9a9sMlD-55" value="+ tazaDeTransferencia(): float" style="text;strokeColor=none;fillColor=none;align=left;verticalAlign=top;spacingLeft=4;spacingRight=4;overflow=hidden;rotatable=0;points=[[0,0.5],[1,0.5]];portConstraint=eastwest;fontStyle=0" vertex="1" parent="HtaL5qtSipClP9a9sMlD-49">
          <mxGeometry y="112" width="255" height="26" as="geometry" />
        </mxCell>
        <mxCell id="HtaL5qtSipClP9a9sMlD-56" value="+ resetear(): void" style="text;strokeColor=none;fillColor=none;align=left;verticalAlign=top;spacingLeft=4;spacingRight=4;overflow=hidden;rotatable=0;points=[[0,0.5],[1,0.5]];portConstraint=eastwest;fontStyle=0" vertex="1" parent="HtaL5qtSipClP9a9sMlD-49">
          <mxGeometry y="138" width="255" height="26" as="geometry" />
        </mxCell>
        <mxCell id="HtaL5qtSipClP9a9sMlD-57" value="+ realizarBackUp(): void" style="text;strokeColor=none;fillColor=none;align=left;verticalAlign=top;spacingLeft=4;spacingRight=4;overflow=hidden;rotatable=0;points=[[0,0.5],[1,0.5]];portConstraint=eastwest;fontStyle=0" vertex="1" parent="HtaL5qtSipClP9a9sMlD-49">
          <mxGeometry y="164" width="255" height="26" as="geometry" />
        </mxCell>
        <mxCell id="HtaL5qtSipClP9a9sMlD-58" value="ServidorPop" style="swimlane;fontStyle=1;align=center;verticalAlign=top;childLayout=stackLayout;horizontal=1;startSize=26;horizontalStack=0;resizeParent=1;resizeParentMax=0;resizeLast=0;collapsible=1;marginBottom=0;strokeColor=default;" vertex="1" parent="1">
          <mxGeometry x="20" y="-700" width="250" height="190" as="geometry" />
        </mxCell>
        <mxCell id="HtaL5qtSipClP9a9sMlD-59" value="" style="line;strokeWidth=1;fillColor=none;align=left;verticalAlign=middle;spacingTop=-1;spacingLeft=3;spacingRight=3;rotatable=0;labelPosition=right;points=[];portConstraint=eastwest;" vertex="1" parent="HtaL5qtSipClP9a9sMlD-58">
          <mxGeometry y="26" width="250" height="8" as="geometry" />
        </mxCell>
        <mxCell id="HtaL5qtSipClP9a9sMlD-61" value="+ recibirNuevos(String, String): List&lt;Correo&gt;" style="text;strokeColor=none;fillColor=none;align=left;verticalAlign=top;spacingLeft=4;spacingRight=4;overflow=hidden;rotatable=0;points=[[0,0.5],[1,0.5]];portConstraint=eastwest;fontStyle=0" vertex="1" parent="HtaL5qtSipClP9a9sMlD-58">
          <mxGeometry y="34" width="250" height="26" as="geometry" />
        </mxCell>
        <mxCell id="HtaL5qtSipClP9a9sMlD-62" value="+ conectar(String, String): void" style="text;strokeColor=none;fillColor=none;align=left;verticalAlign=top;spacingLeft=4;spacingRight=4;overflow=hidden;rotatable=0;points=[[0,0.5],[1,0.5]];portConstraint=eastwest;fontStyle=0" vertex="1" parent="HtaL5qtSipClP9a9sMlD-58">
          <mxGeometry y="60" width="250" height="26" as="geometry" />
        </mxCell>
        <mxCell id="HtaL5qtSipClP9a9sMlD-66" value="+ enviar(Correo): void" style="text;strokeColor=none;fillColor=none;align=left;verticalAlign=top;spacingLeft=4;spacingRight=4;overflow=hidden;rotatable=0;points=[[0,0.5],[1,0.5]];portConstraint=eastwest;fontStyle=0" vertex="1" parent="HtaL5qtSipClP9a9sMlD-58">
          <mxGeometry y="86" width="250" height="26" as="geometry" />
        </mxCell>
        <mxCell id="HtaL5qtSipClP9a9sMlD-67" value="+ tazaDeTransferencia(): float" style="text;strokeColor=none;fillColor=none;align=left;verticalAlign=top;spacingLeft=4;spacingRight=4;overflow=hidden;rotatable=0;points=[[0,0.5],[1,0.5]];portConstraint=eastwest;fontStyle=0" vertex="1" parent="HtaL5qtSipClP9a9sMlD-58">
          <mxGeometry y="112" width="250" height="26" as="geometry" />
        </mxCell>
        <mxCell id="HtaL5qtSipClP9a9sMlD-68" value="+ resetear(): void" style="text;strokeColor=none;fillColor=none;align=left;verticalAlign=top;spacingLeft=4;spacingRight=4;overflow=hidden;rotatable=0;points=[[0,0.5],[1,0.5]];portConstraint=eastwest;fontStyle=0" vertex="1" parent="HtaL5qtSipClP9a9sMlD-58">
          <mxGeometry y="138" width="250" height="26" as="geometry" />
        </mxCell>
        <mxCell id="HtaL5qtSipClP9a9sMlD-69" value="+ realizarBackUp(): void" style="text;strokeColor=none;fillColor=none;align=left;verticalAlign=top;spacingLeft=4;spacingRight=4;overflow=hidden;rotatable=0;points=[[0,0.5],[1,0.5]];portConstraint=eastwest;fontStyle=0" vertex="1" parent="HtaL5qtSipClP9a9sMlD-58">
          <mxGeometry y="164" width="250" height="26" as="geometry" />
        </mxCell>
      </root>
    </mxGraphModel>
  </diagram>
</mxfile>
